<?xml version="1.0" encoding="UTF-8" standalone="no"?>
<svg
   width="101.68063"
   height="100"
   version="1.1"
   id="svg4658"
   sodipodi:docname="github_logo.svg"
   inkscape:version="1.2.2 (732a01da63, 2022-12-09)"
   xmlns:inkscape="http://www.inkscape.org/namespaces/inkscape"
   xmlns:sodipodi="http://sodipodi.sourceforge.net/DTD/sodipodi-0.dtd"
   xmlns="http://www.w3.org/2000/svg"
   xmlns:svg="http://www.w3.org/2000/svg">
  <defs
     id="defs4662" />
  <sodipodi:namedview
     id="namedview4660"
     pagecolor="#ffffff"
     bordercolor="#111111"
     borderopacity="1"
     inkscape:showpageshadow="0"
     inkscape:pageopacity="0"
     inkscape:pagecheckerboard="1"
     inkscape:deskcolor="#d1d1d1"
     showgrid="false"
     inkscape:zoom="2.4583333"
     inkscape:cx="-17.491525"
     inkscape:cy="21.152542"
     inkscape:window-width="1680"
     inkscape:window-height="987"
     inkscape:window-x="-8"
     inkscape:window-y="-8"
     inkscape:window-maximized="1"
     inkscape:current-layer="svg4658" />
  <path
     fill-rule="evenodd"
     clip-rule="evenodd"
     d="m 50.881958,0.56142512 c -27.85136,0 -50.36647521,22.68109888 -50.36647521,50.74071388 0,22.429546 14.42621021,41.415686 34.43918821,48.135476 21.905491,-0.05254 12.31178,0.001 31.771063,0.001 C 86.738717,92.716755 101.16493,73.731645 101.16493,51.302099 101.2474,23.242484 78.649807,0.56138512 50.881958,0.56138512 Z"
     fill="#ffffff"
     id="path4656-2"
     style="fill:#000000;stroke:none;stroke-width:1.03096"
     sodipodi:nodetypes="sscccss" />
  <path
     fill-rule="evenodd"
     clip-rule="evenodd"
     d="m 50.881956,0.51547998 c -27.85136,0 -50.36647602,22.68110002 -50.36647602,50.74071502 0,22.429546 14.42621102,41.415689 34.43918902,48.135481 2.502138,0.50517 3.41866,-1.091786 3.41866,-2.435126 0,-1.176324 -0.08248,-5.208405 -0.08248,-9.409564 C 24.280114,90.571821 21.3625,81.498349 21.3625,81.498349 c -2.251615,-5.88059 -5.587799,-7.391977 -5.587799,-7.391977 -4.585706,-3.108341 0.334031,-3.108341 0.334031,-3.108341 5.086753,0.336092 7.755906,5.208405 7.755906,5.208405 4.502198,7.72807 11.757057,5.544498 14.675703,4.200128 0.416507,-3.276388 1.751599,-5.544499 3.169168,-6.804331 -11.174566,-1.176324 -22.931624,-5.544498 -22.931624,-25.03478 0,-5.544498 2.000061,-10.080718 5.169229,-13.60866 -0.500015,-1.259832 -2.251614,-6.469269 0.501047,-13.441645 0,0 4.252706,-1.344371 13.841657,5.208405 A 48.42415,48.42415 0 0 1 50.881956,25.04509 c 4.252707,0 8.58789,0.588678 12.591104,1.680463 9.589982,-6.552776 13.842688,-5.208405 13.842688,-5.208405 2.752661,6.972376 1.000031,12.181813 0.500015,13.441645 3.252676,3.527942 5.17026,8.064162 5.17026,13.60866 0,19.490282 -11.757057,23.773917 -23.015131,25.03478 1.835107,1.595925 3.41866,4.619728 3.41866,9.408533 0,6.804331 -0.08248,12.265321 -0.08248,13.944753 0,1.344371 0.917553,2.941327 3.41866,2.437188 C 86.738715,92.670853 101.16493,73.685741 101.16493,51.256195 101.2474,23.19658 78.649809,0.51547998 50.881956,0.51547998 Z"
     fill="#ffffff"
     id="path4656"
     style="stroke:#000000;stroke-width:1.03096" />
</svg>
